<svg width="111" height="33" viewBox="0 0 111 33" fill="none" xmlns="http://www.w3.org/2000/svg">
<path fill-rule="evenodd" clip-rule="evenodd" d="M111 1.02051V32.1503H96.8878V5.88269H93.3894V18.3346L87.5192 32.1503H72.5176L86.9855 1.02051H111Z" fill="#FCFDF8"/>
<path fill-rule="evenodd" clip-rule="evenodd" d="M31.6635 18.3346L38.5417 32.1503H23.8958L17.492 18.3346V5.88269H13.9936V32.1503H0V1.02051H24.1923H25.8526C30.4776 1.02051 34.2131 4.75608 34.2131 9.38108C34.2131 9.38108 34.2131 10.8042 34.2131 12.4644C34.1538 14.9548 32.9086 17.208 31.6635 18.3346Z" fill="#FCFDF8"/>
<path fill-rule="evenodd" clip-rule="evenodd" d="M38.542 24.264C38.542 28.9483 42.3369 32.7432 47.0212 32.7432H63.9795C68.6638 32.7432 72.5179 28.889 72.5179 24.2048V18.3346H57.2792V27.4067H53.7808V5.88265H57.2792V14.7176H72.5179V8.96598C72.5179 4.28169 68.7231 0.486816 64.0388 0.486816H47.0212C42.3369 0.486816 38.542 4.28169 38.542 8.96598V24.264Z" fill="#FCFDF8"/>
</svg>
